<svg width="268" height="241" viewBox="0 0 268 241" fill="none" xmlns="http://www.w3.org/2000/svg">
<path d="M68.3018 193.593L68.1661 193.783L42.9093 222.12L33.1325 215.581L44.8104 190.786L38.5641 181.25L12.221 183.43L5.70314 167.627L25.5283 151.006L23.0841 138.2L0 128.664L0.271578 112.861L16.8107 108.283L35.3866 123.215L37.342 124.822C37.342 124.931 37.342 125.013 37.342 125.122C37.342 152.423 49.3185 176.918 68.3018 193.593Z" fill="#20385A"/>
<path d="M57.7512 68.1139C57.3171 68.6303 56.9102 69.1738 56.5033 69.6902C56.0421 70.2881 55.581 70.9132 55.1198 71.5383C54.9842 71.7285 54.8214 71.946 54.6857 72.1362C54.6586 72.1634 54.6315 72.2177 54.6044 72.2449C54.4145 72.4895 54.2517 72.7341 54.0618 73.0059C54.0618 73.0331 54.0347 73.0331 54.0347 73.0602C53.8177 73.3592 53.6278 73.6581 53.4108 73.9571C53.2209 74.2289 53.031 74.5007 52.8411 74.7724C52.6783 75.017 52.5155 75.2616 52.3528 75.5062C52.2171 75.6965 52.1086 75.8867 51.973 76.077C51.9459 76.1041 51.9187 76.1313 51.9187 76.1857C51.7831 76.4031 51.6475 76.5933 51.5118 76.8108C51.5118 76.8108 51.5118 76.8108 51.5118 76.8379C51.3762 77.0282 51.2677 77.2184 51.1591 77.4087C50.915 77.8163 50.6709 78.1968 50.4267 78.6045C50.2368 78.9034 50.0741 79.2024 49.8842 79.5285C49.857 79.5557 49.857 79.6101 49.8299 79.6372C49.8028 79.6916 49.7485 79.7731 49.7214 79.8275C49.6129 80.0177 49.5044 80.208 49.3959 80.3982C49.3416 80.4797 49.3145 80.5613 49.2602 80.6428C49.2602 80.6428 49.2602 80.67 49.2331 80.67C49.2331 80.6972 49.206 80.6972 49.206 80.7243C49.0975 80.9418 48.9618 81.132 48.8533 81.3494C48.7719 81.4853 48.7177 81.594 48.6363 81.7299C48.582 81.8386 48.5006 81.9745 48.4464 82.0832C48.4464 82.0832 48.4464 82.0832 48.4464 82.1104C48.4464 82.1376 48.4193 82.1648 48.4193 82.1648C48.4193 82.1919 48.3921 82.1919 48.3921 82.2191C48.2565 82.4909 48.1209 82.7627 47.9581 83.0344C47.7682 83.3878 47.6054 83.7411 47.4155 84.0944C47.3342 84.2574 47.2256 84.4477 47.1443 84.6107C47.0629 84.801 46.9815 84.9641 46.873 85.1543C46.6831 85.5076 46.5203 85.8609 46.3576 86.2142C46.2762 86.4045 46.1948 86.5675 46.1134 86.7578C46.032 86.948 45.9506 87.1111 45.8693 87.3013C45.815 87.4372 45.7608 87.5731 45.6794 87.6818C45.6251 87.8177 45.5709 87.9536 45.5166 88.0623C45.4895 88.1167 45.4623 88.171 45.4623 88.1982C45.4623 88.2254 45.4352 88.2525 45.4352 88.2797C45.381 88.3884 45.3267 88.5243 45.2725 88.633C45.2182 88.7417 45.1639 88.8776 45.1097 88.9863C44.9741 89.2853 44.8656 89.5571 44.7299 89.856C44.6214 90.1278 44.4858 90.4268 44.3772 90.6985C44.3501 90.7257 44.3501 90.7801 44.323 90.8072C44.2145 91.079 44.106 91.3508 43.9975 91.5954C43.5363 92.764 43.0751 93.9599 42.6682 95.1557C42.5868 95.4274 42.4783 95.6992 42.3969 95.9438V95.971C42.3969 95.9982 42.3698 96.0525 42.3427 96.1069C42.2613 96.3787 42.1528 96.6776 42.0714 96.9766C41.99 97.2484 41.9086 97.493 41.8273 97.7647C41.8001 97.8463 41.773 97.9278 41.7459 98.0093C41.6645 98.2811 41.5831 98.5529 41.5017 98.8247C41.4203 99.0964 41.3389 99.3682 41.2576 99.64C41.2304 99.7487 41.2033 99.8302 41.1762 99.9118C41.1762 99.9389 41.1762 99.9389 41.1762 99.9661L41.0677 100.319C41.0406 100.428 41.0134 100.564 40.9592 100.673C40.8778 100.972 40.7964 101.298 40.715 101.597C40.6608 101.814 40.6065 102.032 40.5251 102.276C40.498 102.439 40.4437 102.575 40.4166 102.738C40.4166 102.765 40.4166 102.793 40.3895 102.82C40.3081 103.119 40.2538 103.391 40.1725 103.689C39.9554 104.559 39.7656 105.429 39.5757 106.299C39.44 106.924 39.3044 107.576 39.1959 108.201C38.8975 109.804 38.6262 111.408 38.4092 113.039C38.382 113.283 38.3549 113.528 38.3278 113.772C38.3007 114.017 38.2735 114.262 38.2464 114.506C38.1921 114.995 38.1379 115.485 38.0836 115.974C38.0565 116.3 38.0294 116.626 38.0022 116.952C37.9751 117.278 37.948 117.604 37.9209 117.931C37.8937 118.202 37.8666 118.501 37.8666 118.8C37.8666 118.827 37.8666 118.827 37.8666 118.855C37.8666 118.936 37.8666 119.018 37.8395 119.099C37.8395 119.154 37.8395 119.181 37.8395 119.235C37.8395 119.453 37.8124 119.67 37.8124 119.86C37.8124 119.887 37.8124 119.887 37.8124 119.915V119.942C37.8124 120.105 37.7852 120.268 37.7852 120.431C37.7852 120.594 37.7581 120.757 37.7581 120.92C37.731 121.246 37.731 121.572 37.7038 121.926C37.7038 122.252 37.6767 122.605 37.6767 122.931C37.6767 122.958 37.6767 122.986 37.6767 123.013C37.6767 123.665 37.6496 124.29 37.6496 124.942L35.6964 123.339L17.1411 108.446L17.5209 108.337L24.14 106.489L27.6666 91.541L11.6613 74.6909L20.0709 60.015L41.773 64.3634C41.773 64.3634 41.8815 64.2819 42.0714 64.146C42.0985 64.1188 42.1528 64.0916 42.1799 64.0644C42.3427 63.9557 42.5597 63.8198 42.8038 63.6568C42.8581 63.6296 42.9124 63.5752 42.9937 63.5481C43.265 63.385 43.5363 63.1947 43.8889 62.9773C43.9703 62.923 44.0517 62.8686 44.1602 62.8143C44.1874 62.7871 44.2145 62.7871 44.2416 62.7599C44.2959 62.7327 44.3501 62.6784 44.4315 62.6512C44.4858 62.624 44.5671 62.5697 44.6214 62.5425C45.1097 62.2435 45.6522 61.8902 46.2491 61.5369C46.4389 61.4282 46.6288 61.3195 46.8187 61.1836C46.873 61.1564 46.9001 61.1292 46.9544 61.1021C47.1443 60.9934 47.3342 60.8575 47.5512 60.7488C48.2294 60.3411 48.9618 59.8791 49.7214 59.417L57.7512 68.1139Z" fill="#375A90"/>
<path d="M115.502 34.3193C115.34 34.3193 115.205 34.3193 115.042 34.3193C114.853 34.3193 114.663 34.3193 114.474 34.292C114.393 34.292 114.285 34.292 114.203 34.292C113.96 34.292 113.716 34.292 113.473 34.292C111.957 34.292 110.496 34.3467 109.116 34.4832C108.899 34.5105 108.683 34.5378 108.439 34.5378C108.277 34.5651 108.141 34.5651 107.979 34.5924C107.817 34.6197 107.654 34.6198 107.519 34.6471C107.492 34.6471 107.465 34.6471 107.438 34.6471C107.33 34.6471 107.248 34.6744 107.14 34.6744C106.87 34.7017 106.572 34.7563 106.274 34.8109C106.058 34.8382 105.841 34.8655 105.625 34.9202C105.598 34.9202 105.571 34.9202 105.544 34.9202C105.516 34.9202 105.489 34.9202 105.462 34.9202C105.435 34.9202 105.381 34.9202 105.354 34.9475C105.084 35.0021 104.786 35.0567 104.515 35.1113C104.299 35.1386 104.082 35.1933 103.866 35.2479C103.73 35.2752 103.568 35.3025 103.406 35.3298C103.243 35.3571 103.054 35.4117 102.892 35.439C102.837 35.4664 102.783 35.4664 102.729 35.4664C102.513 35.521 102.296 35.5483 102.08 35.6029C101.863 35.6575 101.647 35.7121 101.403 35.7668C101.16 35.8214 100.97 35.876 100.727 35.9306C100.618 35.9579 100.51 35.9852 100.402 36.0126C100.158 36.0672 99.8876 36.1491 99.6441 36.2037C99.3193 36.2857 98.9946 36.3676 98.6428 36.4768C98.3181 36.5587 97.9933 36.668 97.6415 36.7499C97.5333 36.7772 97.425 36.8045 97.3168 36.8318C97.1003 36.8865 96.8567 36.9684 96.6402 37.023C96.5861 37.0503 96.5049 37.0503 96.4508 37.0776H96.4237H96.3967C96.1261 37.1596 95.8825 37.2415 95.6119 37.3234C95.2871 37.4327 94.9353 37.5419 94.6106 37.6511C94.2859 37.7604 93.934 37.8696 93.5822 37.9789C92.9057 38.1973 92.2291 38.4431 91.5526 38.6889C91.2279 38.7982 90.9302 38.9074 90.6054 39.0166C90.2807 39.1259 89.983 39.2351 89.6583 39.3717C89.6042 39.399 89.55 39.4263 89.4959 39.4263C89.1982 39.5355 88.9276 39.6448 88.6299 39.754C88.4676 39.8086 88.3322 39.8632 88.1699 39.9179C88.0346 39.9725 87.9263 39.9998 87.791 40.0544C87.6557 40.109 87.5475 40.1636 87.4122 40.191C86.9792 40.3548 86.5462 40.5187 86.1132 40.7098C85.8426 40.8191 85.599 40.9283 85.3555 41.0102C84.8954 41.2014 84.4624 41.3653 84.0024 41.5564C83.407 41.8022 82.8387 42.048 82.2434 42.2938C81.8915 42.4304 81.5668 42.5942 81.215 42.7308C80.8632 42.8946 80.4843 43.0585 80.1325 43.2223C79.8078 43.3589 79.483 43.5228 79.1583 43.6593C78.8065 43.8232 78.4818 43.9597 78.13 44.1236C77.8052 44.2874 77.4534 44.424 77.1016 44.5878C76.7769 44.7517 76.4251 44.9156 76.0733 45.0521C75.8026 45.1887 75.532 45.2979 75.2614 45.4344C74.9908 45.571 74.7202 45.7075 74.4496 45.8168C74.3684 45.8714 74.2872 45.8987 74.1789 45.9533C73.7189 46.1718 73.2588 46.3903 72.8258 46.6088C72.5823 46.7453 72.3387 46.8546 72.0952 46.9638C71.6351 47.1823 71.148 47.4281 70.688 47.6738C70.4985 47.7558 70.3362 47.865 70.1467 47.9469C69.7137 48.1654 69.2537 48.3839 68.8207 48.6297C68.3877 48.8482 67.9547 49.0666 67.5217 49.3124C67.3052 49.4217 67.0887 49.5309 66.8723 49.6402C66.0063 50.1044 65.1674 50.5414 64.3284 51.0056C63.7601 51.306 63.1918 51.6065 62.6506 51.9069C62.5694 51.9615 62.4882 51.9888 62.4071 52.0434C62.0282 52.2619 61.6493 52.4531 61.2705 52.6715C61.081 52.7808 60.8645 52.89 60.6751 52.9993C60.2692 53.2177 59.8903 53.4362 59.4844 53.6547C58.9161 53.9824 58.3207 54.3101 57.7795 54.6105C57.4006 54.829 57.0218 55.0202 56.6699 55.2387C56.4264 55.3752 56.1558 55.5391 55.9122 55.6756C55.6957 55.8122 55.4522 55.9487 55.2357 56.058C54.8298 56.3037 54.4238 56.5222 54.045 56.768C53.6931 56.9592 53.3684 57.1777 53.0437 57.3688C52.8813 57.4781 52.7189 57.56 52.5566 57.6692C52.3942 57.7785 52.2318 57.8604 52.0694 57.9423C52.0153 57.9696 51.9341 58.0243 51.88 58.0516C51.6365 58.1881 51.3658 58.352 51.1223 58.4885C51.014 58.5431 50.9328 58.5978 50.8246 58.6524C50.6352 58.7616 50.4728 58.8709 50.2834 58.9801C50.0398 59.1167 49.7692 59.2805 49.5256 59.4171L47.496 57.2323L52.0153 51.9615L44.9792 29.2943L57.9689 20.009L78.8065 31.4791L91.7962 26.2903L93.4199 3.35001L96.0449 2.7765L96.8026 4.00544L115.502 34.3193Z" fill="#4C87BF"/>
<path d="M49.4217 59.4001C48.6787 59.8685 47.9623 60.3094 47.299 60.7502C47.0867 60.888 46.901 60.9982 46.7153 61.1084C46.6622 61.1359 46.6357 61.1635 46.5826 61.191C46.3969 61.3013 46.2112 61.439 46.0254 61.5492C45.4417 61.935 44.911 62.2656 44.4334 62.5687C44.3804 62.6238 44.3008 62.6514 44.2477 62.6789C44.1946 62.734 44.115 62.7616 44.062 62.7891C44.0354 62.8167 44.0089 62.8167 43.9824 62.8442C43.9028 62.8993 43.7966 62.9544 43.717 63.0096C43.3986 63.23 43.1068 63.4228 42.8415 63.5882C42.7884 63.6157 42.7353 63.6708 42.6557 63.6984C42.4169 63.8637 42.2047 64.0015 42.0455 64.1117C42.0189 64.1392 41.9659 64.1668 41.9393 64.1943C41.7271 64.3321 41.6475 64.4148 41.6475 64.4148L47.4051 57.1959L49.4217 59.4001Z" fill="#375A90"/>
<path d="M173.809 193.574C173.537 193.765 173.266 193.929 172.995 194.12C172.805 194.256 172.588 194.392 172.398 194.501C172.235 194.61 172.099 194.692 171.937 194.801C171.692 194.965 171.421 195.129 171.15 195.292C170.933 195.428 170.715 195.565 170.526 195.674C169.657 196.219 168.762 196.737 167.866 197.228C167.649 197.337 167.459 197.446 167.27 197.555C166.808 197.801 166.374 198.046 165.913 198.292C165.723 198.401 165.506 198.51 165.316 198.592C164.692 198.919 164.068 199.219 163.444 199.519C163.227 199.628 163.037 199.71 162.82 199.819C162.684 199.873 162.575 199.928 162.467 199.982C162.25 200.091 162.033 200.173 161.843 200.282C161.083 200.637 160.296 200.964 159.536 201.291C159.292 201.4 159.048 201.482 158.804 201.591C158.505 201.728 158.207 201.837 157.908 201.946C157.718 202.027 157.556 202.082 157.366 202.164C157.067 202.273 156.769 202.382 156.47 202.518C156.443 202.518 156.416 202.546 156.389 202.546C156.009 202.682 155.629 202.818 155.249 202.955C154.924 203.064 154.625 203.173 154.3 203.282C154.11 203.336 153.893 203.418 153.703 203.473C153.486 203.555 153.268 203.609 153.051 203.691C152.563 203.854 152.075 203.991 151.586 204.154C151.315 204.236 151.043 204.318 150.772 204.4C149.985 204.645 149.171 204.863 148.357 205.054C148.167 205.109 147.977 205.136 147.787 205.191C147.489 205.272 147.163 205.354 146.838 205.409C146.431 205.491 146.051 205.6 145.644 205.681C145.128 205.791 144.613 205.9 144.07 206.009C143.799 206.063 143.527 206.118 143.256 206.172C142.93 206.227 142.605 206.309 142.279 206.363C142.062 206.418 141.845 206.445 141.628 206.472C141.248 206.527 140.868 206.609 140.488 206.663C140.136 206.718 139.756 206.772 139.376 206.827C138.996 206.881 138.589 206.936 138.209 206.99C138.128 206.99 138.046 207.018 137.992 207.018C137.639 207.072 137.287 207.099 136.934 207.127C136.907 207.127 136.88 207.127 136.852 207.127L46.334 132.302C46.3069 132.029 46.2798 131.756 46.2798 131.483C46.2255 130.802 46.1712 130.093 46.1441 129.384C46.1441 129.111 46.117 128.838 46.117 128.593C46.117 128.511 46.117 128.429 46.117 128.375C46.117 128.102 46.0898 127.829 46.0898 127.557C46.0898 127.339 46.0898 127.148 46.0898 126.93C46.0898 126.684 46.0898 126.439 46.0898 126.221C46.0898 125.921 46.0898 125.621 46.0898 125.348C46.0898 125.048 46.0898 124.748 46.0898 124.448C46.0898 124.23 46.0898 124.012 46.0898 123.821C46.0898 123.657 46.0898 123.494 46.0898 123.357C46.0898 123.057 46.117 122.757 46.117 122.458C46.117 122.294 46.117 122.13 46.1441 121.967C46.1441 121.803 46.1441 121.667 46.1712 121.503C46.1712 121.285 46.1984 121.094 46.1984 120.903C46.2255 120.303 46.2526 119.731 46.3069 119.131C46.3069 118.94 46.334 118.749 46.3612 118.585C46.3883 118.367 46.3883 118.149 46.4155 117.904C46.4426 117.631 46.4697 117.331 46.4969 117.058C46.4969 116.977 46.524 116.867 46.524 116.786C46.5511 116.567 46.5782 116.349 46.6054 116.131C46.6054 116.022 46.6325 115.913 46.6325 115.831C46.6597 115.586 46.6868 115.34 46.7139 115.068C46.7953 114.386 46.9039 113.677 46.9853 112.995C47.0124 112.832 47.0395 112.695 47.0667 112.532C47.0938 112.314 47.1481 112.068 47.1752 111.85C47.1752 111.823 47.1752 111.768 47.2023 111.714C47.2566 111.468 47.2837 111.196 47.338 110.95C47.3923 110.732 47.4194 110.487 47.4737 110.241C47.5008 109.996 47.5551 109.778 47.6093 109.532C47.6636 109.259 47.7179 109.014 47.7721 108.741C47.8264 108.496 47.8807 108.223 47.9349 107.978C48.0163 107.651 48.0706 107.323 48.152 106.996C48.2063 106.724 48.2605 106.451 48.3419 106.205C48.3419 106.178 48.3419 106.151 48.3691 106.096C48.4233 105.878 48.4776 105.687 48.5319 105.469C48.8304 104.297 49.1288 103.124 49.4816 101.979C49.5358 101.761 49.6172 101.542 49.6986 101.297C49.8072 100.915 49.9428 100.534 50.0514 100.152C50.1056 99.9881 50.1599 99.7973 50.2142 99.6336C50.2956 99.3882 50.377 99.1701 50.4584 98.9247C50.5127 98.7338 50.5941 98.5429 50.6483 98.352C50.7026 98.2157 50.7569 98.0521 50.8111 97.9157C51.0011 97.3704 51.191 96.8523 51.3809 96.3069C51.4623 96.116 51.5166 95.9251 51.598 95.7342C51.7337 95.3525 51.8965 94.9707 52.0593 94.5617C52.1407 94.3435 52.2221 94.1254 52.3306 93.9072C52.4392 93.6345 52.5477 93.3891 52.6562 93.1164C52.8733 92.5983 53.0904 92.0802 53.3346 91.5621C53.5788 91.0167 53.823 90.4714 54.0943 89.926C54.1757 89.7351 54.2843 89.5442 54.3657 89.3534C54.3928 89.2716 54.4471 89.217 54.4742 89.1352C54.5827 88.9171 54.6641 88.7262 54.7727 88.5353C55.0169 88.0445 55.2882 87.5264 55.5324 87.0355C55.6681 86.7901 55.8038 86.5447 55.9123 86.2993C56.0208 86.0539 56.1836 85.8084 56.3193 85.563C56.455 85.3176 56.5906 85.0722 56.7263 84.8268C56.862 84.5813 56.9976 84.3359 57.1333 84.0905C57.269 83.8451 57.4046 83.5997 57.5674 83.3543C58.0016 82.618 58.4357 81.909 58.8699 81.2C59.0055 80.9546 59.1683 80.7365 59.3311 80.4911C59.4939 80.2456 59.6296 80.0275 59.7924 79.7821C59.9552 79.5639 60.0909 79.3185 60.2537 79.1003C60.4436 78.8277 60.6064 78.555 60.7964 78.3096C61.0949 77.9005 61.3662 77.4915 61.6646 77.0825L61.6918 77.0552C62.0174 76.6189 62.343 76.1553 62.6686 75.719C62.8314 75.5009 62.9942 75.2827 63.1842 75.0646C63.347 74.8464 63.5369 74.6283 63.6997 74.4101L78.2434 90.1442H69.3707V133.501H80.4955C80.4955 133.501 80.4955 118.231 80.4955 108.141C81.7708 102.879 84.4571 100.506 86.7363 99.4428L97.8612 111.496V133.474H108.172C108.172 133.474 108.172 129.656 108.172 126.657C105.974 124.012 104.672 121.094 104.021 118.095L110.858 125.484C111.672 126.548 112.595 127.557 113.599 128.429L173.809 193.574Z" fill="#375A90"/>
<path d="M97.7327 106.702V111.615L86.6267 99.6839C88.7125 98.7391 90.419 98.8471 90.419 98.8471C96.6492 100.224 97.7327 106.702 97.7327 106.702Z" fill="#4C87BF"/>
<path d="M198.797 167.25C198.606 167.576 198.415 167.902 198.197 168.201C197.788 168.854 197.378 169.479 196.969 170.105C196.942 170.132 196.942 170.159 196.915 170.186C196.56 170.73 196.178 171.274 195.796 171.818C195.741 171.872 195.714 171.954 195.66 172.035C195.25 172.634 194.814 173.205 194.377 173.803C193.941 174.401 193.477 174.999 193.013 175.597C192.795 175.896 192.549 176.196 192.304 176.467C192.276 176.495 192.249 176.522 192.222 176.549C191.785 177.093 191.321 177.664 190.858 178.18C190.557 178.534 190.257 178.86 189.957 179.214C189.793 179.377 189.657 179.567 189.493 179.73C189.193 180.057 188.893 180.383 188.593 180.709C188.347 180.981 188.102 181.253 187.829 181.525C187.829 181.525 187.829 181.525 187.802 181.552C187.556 181.797 187.338 182.042 187.092 182.286C186.247 183.156 185.373 184.027 184.473 184.869C184.282 185.06 184.091 185.223 183.9 185.413C183.709 185.576 183.518 185.767 183.327 185.93C183.109 186.12 182.891 186.338 182.672 186.528C182.645 186.555 182.618 186.555 182.618 186.582C182.372 186.8 182.154 186.99 181.908 187.208C181.172 187.86 180.408 188.486 179.644 189.111C179.398 189.329 179.125 189.519 178.88 189.737C178.689 189.9 178.471 190.036 178.28 190.199C178.089 190.335 177.898 190.498 177.679 190.661C177.434 190.851 177.161 191.042 176.915 191.232C176.397 191.613 175.906 191.966 175.387 192.32C175.224 192.429 175.06 192.564 174.869 192.673C174.596 192.864 174.323 193.054 174.05 193.244L113.589 128.312C117.436 131.766 122.511 133.832 128.049 133.832C133.097 133.832 137.735 132.119 141.419 129.21V134.104H152.605V133.016H146.875L152.605 123.499V99.0276H149.604V90.0546H141.419V94.4052C137.735 91.5229 133.097 89.7827 128.049 89.7827C115.99 89.7827 106.222 99.653 106.222 111.807C106.222 116.919 107.941 121.596 110.833 125.348L103.958 117.98C101.557 107.402 107.041 96.3085 107.041 96.3085C97.2183 81.4895 84.2038 91.0607 81.2025 93.5622L80.575 92.8825V90.0546H77.9284L63.3041 74.3654C63.7407 73.8216 64.1772 73.2778 64.6138 72.734C65.0503 72.2173 65.4869 71.6735 65.9507 71.1569C65.9507 71.1569 65.9507 71.1569 65.978 71.1297C66.1963 70.8578 66.4418 70.6131 66.6601 70.3684C66.8784 70.0964 67.1239 69.8517 67.3695 69.607C67.615 69.3623 67.8333 69.0904 68.0789 68.8457C68.3244 68.6009 68.5427 68.3562 68.7882 68.1115L68.8155 68.0843C69.0611 67.8396 69.3066 67.5949 69.5249 67.3502C70.016 66.8607 70.5072 66.3713 71.0255 65.8819C71.2711 65.6371 71.5167 65.3924 71.7895 65.1749C72.0351 64.9302 72.3079 64.7126 72.5535 64.4679C72.799 64.2232 73.0719 64.0057 73.3174 63.761C74.0814 63.0812 74.8726 62.4014 75.6639 61.7488C75.9367 61.5313 76.2368 61.2866 76.5097 61.0691C76.7825 60.8515 77.0553 60.634 77.3282 60.4165C77.7374 60.0902 78.1467 59.7639 78.5833 59.4648C78.9925 59.1385 79.4291 58.8394 79.8383 58.5403C80.1112 58.35 80.384 58.1596 80.6569 57.9421C80.9843 57.7246 81.3117 57.507 81.6391 57.2623C81.8846 57.0992 82.1302 56.936 82.3757 56.7729C82.6759 56.5825 82.976 56.365 83.3034 56.1747C83.549 56.0115 83.7945 55.8484 84.0674 55.6852C84.4221 55.4677 84.7768 55.223 85.1587 55.0055C85.377 54.8695 85.5953 54.7336 85.8136 54.6248C86.4684 54.2169 87.1232 53.8363 87.8053 53.4828C88.1054 53.3196 88.4056 53.1565 88.733 52.9662C89.0331 52.803 89.3605 52.6399 89.6606 52.4767C89.8789 52.3679 90.0699 52.2592 90.2882 52.1504C91.0248 51.7698 91.7615 51.4163 92.4982 51.0628C92.8256 50.8996 93.1257 50.7637 93.4531 50.6005C93.7805 50.4646 94.0807 50.3014 94.4081 50.1655C94.7355 50.0295 95.0629 49.8936 95.363 49.7304C95.6904 49.5945 96.0178 49.4585 96.3452 49.3226C96.6726 49.1866 97.0001 49.0507 97.3275 48.9147C97.6549 48.7787 97.9823 48.6428 98.3097 48.534C98.6371 48.3981 98.9645 48.2893 99.2919 48.1534C99.6193 48.0174 99.9467 47.9086 100.301 47.7999C100.629 47.6911 100.984 47.5551 101.311 47.4464C101.638 47.3376 101.993 47.2289 102.32 47.1201C102.648 47.0113 103.003 46.9026 103.33 46.7938C104.012 46.5763 104.694 46.3859 105.376 46.1684C105.731 46.0597 106.058 45.9781 106.413 45.8693C106.768 45.7877 107.095 45.679 107.45 45.5974C107.805 45.5158 108.159 45.4071 108.514 45.3255C109.551 45.0808 110.615 44.8361 111.679 44.6185C112.388 44.4826 113.098 44.3466 113.807 44.2107C114.135 44.1563 114.462 44.1019 114.789 44.0475C114.871 44.0475 114.953 44.0203 115.035 44.0203C115.335 43.966 115.635 43.9388 115.935 43.8844H115.963C116.317 43.83 116.645 43.7756 116.999 43.7484C117.027 43.7484 117.081 43.7484 117.108 43.7484C117.409 43.694 117.709 43.6668 118.009 43.6397C118.091 43.6397 118.145 43.6125 118.227 43.6125C118.555 43.5853 118.909 43.5309 119.237 43.5037C119.591 43.4765 119.919 43.4221 120.273 43.3949C120.328 43.3949 120.355 43.3949 120.41 43.3949C120.765 43.3677 121.092 43.3406 121.447 43.3134L163.928 111.318L157.243 122.412V132.744H177.243L198.797 167.25Z" fill="#4C87BF"/>
<path d="M209.903 125.521C209.903 125.793 209.903 126.066 209.903 126.338C209.903 126.556 209.903 126.746 209.903 126.964C209.903 127.209 209.903 127.454 209.903 127.672C209.903 127.999 209.876 128.299 209.876 128.625C209.876 128.68 209.876 128.707 209.876 128.761C209.876 129.006 209.849 129.252 209.849 129.469C209.849 129.578 209.849 129.687 209.822 129.823C209.822 129.905 209.822 130.014 209.795 130.096C209.795 130.314 209.768 130.531 209.768 130.749C209.768 130.804 209.768 130.858 209.768 130.913C209.741 131.239 209.714 131.539 209.714 131.866C209.687 132.138 209.66 132.41 209.66 132.683C209.66 132.764 209.66 132.873 209.633 132.955C209.606 133.227 209.579 133.527 209.552 133.826C209.525 134.153 209.498 134.48 209.444 134.806C209.416 134.97 209.416 135.16 209.389 135.324C209.281 136.277 209.146 137.203 209.011 138.129C208.984 138.401 208.93 138.7 208.876 138.973C208.822 139.354 208.767 139.708 208.686 140.089C208.632 140.389 208.578 140.715 208.524 141.015C208.497 141.097 208.497 141.151 208.47 141.233C208.416 141.505 208.362 141.777 208.308 142.05C208.2 142.622 208.064 143.193 207.956 143.738C207.902 143.929 207.875 144.119 207.821 144.31C207.632 145.099 207.442 145.889 207.226 146.652C207.145 146.951 207.064 147.278 206.983 147.577C206.956 147.659 206.929 147.741 206.929 147.822C206.685 148.667 206.442 149.484 206.198 150.3C206.171 150.355 206.171 150.409 206.144 150.491C206.036 150.818 205.928 151.145 205.82 151.471C205.766 151.607 205.739 151.744 205.685 151.88C205.414 152.697 205.144 153.486 204.846 154.276C204.684 154.712 204.522 155.12 204.36 155.529C204.333 155.583 204.333 155.61 204.306 155.665C204.143 156.046 204.008 156.427 203.846 156.808C203.684 157.217 203.494 157.653 203.332 158.061C203.143 158.469 202.98 158.905 202.791 159.314C202.602 159.722 202.413 160.13 202.223 160.539C202.034 160.947 201.845 161.356 201.628 161.764C201.223 162.581 200.817 163.371 200.411 164.161C200.195 164.569 199.979 164.95 199.762 165.359C199.546 165.74 199.33 166.148 199.113 166.53C198.897 166.911 198.654 167.319 198.437 167.7L177.074 133.145H186.458V124.16H171.503L169.692 121.246L187.188 89.8496H153.926V90.3942H157.441V98.8355H171.233L163.715 111.661L121.611 43.5585C121.881 43.5312 122.151 43.504 122.422 43.504C122.692 43.4768 122.963 43.4768 123.233 43.4495C123.774 43.4223 124.342 43.3951 124.883 43.3678C125.072 43.3678 125.234 43.3678 125.424 43.3406C125.613 43.3406 125.802 43.3406 125.991 43.3134C126.073 43.3134 126.127 43.3134 126.208 43.3134C126.397 43.3134 126.586 43.3134 126.776 43.3134C126.965 43.3134 127.181 43.3134 127.371 43.3134C127.641 43.3134 127.938 43.3134 128.209 43.3134C173.342 43.2862 209.903 80.1012 209.903 125.521Z" fill="#5392BE"/>
<path d="M119.389 39.8343C119.008 39.8619 118.654 39.917 118.3 39.9721C117.919 40.0272 117.565 40.0548 117.21 40.1099C116.856 40.165 116.502 40.2201 116.148 40.2477C116.121 40.2477 116.121 40.2477 116.094 40.2477C115.74 40.3028 115.386 40.3579 115.031 40.4131C114.677 40.4682 114.296 40.5233 113.942 40.606C113.642 40.6611 113.343 40.7162 113.043 40.7713C112.907 40.7989 112.743 40.8264 112.607 40.854C112.335 40.9091 112.063 40.9642 111.79 41.0194C111.436 41.102 111.082 41.1572 110.728 41.2398C110.374 41.3225 110.02 41.3776 109.693 41.4603C109.666 41.4603 109.638 41.4603 109.611 41.4879C109.339 41.543 109.066 41.6257 108.767 41.6808C108.631 41.7083 108.522 41.7359 108.413 41.7635C108.14 41.8186 107.868 41.9013 107.596 41.9564C107.568 41.9564 107.541 41.9839 107.514 41.9839C107.187 42.0666 106.887 42.1493 106.561 42.232C106.288 42.3146 105.989 42.3698 105.716 42.4524C105.553 42.5076 105.389 42.5351 105.226 42.5902C104.954 42.6729 104.708 42.728 104.436 42.8107C104.136 42.8934 103.81 43.0036 103.51 43.0863C103.428 43.1139 103.347 43.1414 103.265 43.169C102.992 43.2517 102.693 43.3343 102.421 43.4446C102.366 43.4446 102.339 43.4721 102.284 43.4997C102.012 43.5824 101.74 43.6651 101.494 43.7753C101.222 43.858 100.95 43.9682 100.677 44.0509C100.432 44.1336 100.187 44.2162 99.9419 44.2989C99.8874 44.3265 99.8329 44.3265 99.8057 44.354C99.5878 44.4367 99.3427 44.5194 99.1248 44.6021C98.8796 44.6848 98.6345 44.7674 98.3894 44.8777C98.3349 44.9052 98.3077 44.9052 98.2532 44.9328C97.9536 45.043 97.6267 45.1808 97.3271 45.2911C97.082 45.4013 96.8096 45.484 96.5645 45.5942C96.401 45.6493 96.2104 45.732 96.047 45.8147C95.7746 45.9249 95.475 46.0352 95.2026 46.173C95.0119 46.2556 94.8485 46.3108 94.6578 46.3934C94.4944 46.4761 94.3038 46.5312 94.1403 46.6139C93.868 46.7241 93.5684 46.8619 93.296 46.9997C93.0508 47.11 92.8057 47.2202 92.5606 47.3304C91.8252 47.6612 91.117 48.0194 90.3816 48.3777C90.1092 48.5155 89.8096 48.6533 89.5372 48.8186C89.3193 48.9289 89.1014 49.0391 88.8835 49.1494C88.7201 49.232 88.5567 49.3147 88.3932 49.3974C87.1131 50.0864 85.8602 50.8029 84.6345 51.547C84.3893 51.6848 84.1442 51.8502 83.8991 51.988C83.3271 52.3187 82.7823 52.677 82.2104 53.0352C81.6656 53.3935 81.1481 53.7242 80.6033 54.11C78.8057 55.3502 77.0352 56.6179 75.3465 57.9959C75.0741 58.2164 74.8018 58.4368 74.5294 58.6573C73.7123 59.3187 72.8952 60.0077 72.1053 60.6967C71.8329 60.9172 71.5878 61.1652 71.3154 61.3857C70.7162 61.9369 70.1169 62.4881 69.5177 63.0668C69.3543 63.2322 69.1636 63.3975 69.0002 63.5629C68.7551 63.7833 68.5099 64.0314 68.292 64.2794C67.9652 64.6101 67.6383 64.9408 67.3115 65.2716C67.1208 65.4645 66.9574 65.6298 66.7667 65.8227C66.3309 66.2637 65.9224 66.7322 65.4866 67.1731C65.3231 67.3385 65.187 67.5039 65.0236 67.6692C64.8601 67.8621 64.6967 68.0275 64.5333 68.2204C64.1247 68.6889 63.7161 69.1574 63.3076 69.6259C63.2531 69.681 63.1986 69.7637 63.1442 69.8188C62.9535 70.0393 62.7356 70.2874 62.5449 70.5354C62.327 70.811 62.0819 71.0866 61.864 71.3622C61.6461 71.6378 61.4282 71.9133 61.2103 72.1889L57.7512 68.4133C57.7784 68.3858 57.8056 68.3582 57.8329 68.3306C58.2414 67.807 58.6772 67.2834 59.113 66.7598C59.5216 66.2912 59.9029 65.8227 60.3115 65.3542C60.5021 65.1338 60.72 64.8857 60.9107 64.6652C61.0469 64.4999 61.2103 64.3345 61.3465 64.1692C61.5099 64.0038 61.6733 63.8109 61.8095 63.6456L61.9185 63.5353C62.0547 63.37 62.2181 63.2322 62.3543 63.0668C62.3543 63.0393 62.3815 63.0392 62.3815 63.0392C62.5177 62.9015 62.6266 62.7637 62.7628 62.6534C62.9807 62.4329 63.1986 62.2125 63.3893 61.992C63.6072 61.7715 63.8251 61.5511 64.043 61.3306C64.2881 61.0825 64.5333 60.8345 64.7784 60.5865C65.0235 60.3384 65.2687 60.118 65.5138 59.8699C65.5138 59.8699 65.5411 59.8699 65.5411 59.8424C65.7862 59.5943 66.0586 59.3463 66.3037 59.1258C66.4671 58.988 66.6033 58.8227 66.7667 58.6849C67.1208 58.3542 67.4749 58.0235 67.829 57.6927C68.0741 57.4447 68.3465 57.2242 68.6189 57.0038C68.8912 56.7833 69.1364 56.5353 69.4088 56.3148C69.6811 56.0943 69.9263 55.8463 70.1987 55.6258C70.471 55.4053 70.7434 55.1848 71.0158 54.9644C71.2882 54.7439 71.5605 54.5234 71.8329 54.303C72.0236 54.1376 72.2142 53.9722 72.4321 53.8344C72.4866 53.8069 72.5411 53.7518 72.5683 53.7242C72.6228 53.6966 72.65 53.6415 72.7045 53.614C72.9224 53.4486 73.1403 53.2833 73.331 53.1179C73.685 52.8423 74.0391 52.5667 74.4205 52.2911C74.6656 52.0982 74.9107 51.9328 75.1559 51.7399C75.401 51.5746 75.6189 51.4092 75.864 51.2439C75.8913 51.2163 75.9185 51.1887 75.973 51.1612C76.0275 51.1336 76.0547 51.1061 76.1092 51.0785C76.1092 51.0785 76.1092 51.0785 76.1364 51.0509C76.2998 50.9407 76.4633 50.8029 76.6267 50.6927C76.7901 50.5549 76.9808 50.4446 77.1442 50.3344C77.3893 50.1691 77.6345 49.9761 77.9068 49.8108C78.0975 49.673 78.3154 49.5352 78.5061 49.3974C78.5878 49.3423 78.6423 49.2872 78.724 49.2596C78.7512 49.232 78.8057 49.2045 78.8329 49.1769C78.9963 49.0667 79.187 48.9564 79.3504 48.8186C79.4321 48.7635 79.4866 48.736 79.5683 48.6808C79.5956 48.6808 79.5956 48.6533 79.6228 48.6533C79.8679 48.4879 80.0858 48.3501 80.331 48.1848C80.6306 47.9919 80.9302 47.799 81.2298 47.6336C81.5022 47.4682 81.8018 47.2753 82.0742 47.11C82.1286 47.0824 82.1831 47.0548 82.2104 47.0273C82.4827 46.8619 82.7279 46.7241 83.0002 46.5588C83.0002 46.5588 83.0275 46.5312 83.0547 46.5312C83.3271 46.3659 83.5995 46.2005 83.8718 46.0627C84.117 45.9249 84.3621 45.7871 84.6072 45.6493C84.7707 45.5666 84.9069 45.484 85.0703 45.4013C85.0975 45.3737 85.1248 45.3737 85.152 45.3462C85.1792 45.3186 85.2065 45.3186 85.2337 45.2911C85.6423 45.0706 86.0781 44.8501 86.4866 44.6296C86.7862 44.4643 87.1131 44.2989 87.4127 44.1336C87.6033 44.0509 87.794 43.9406 87.9574 43.858C88.0119 43.8304 88.0664 43.8029 88.1481 43.7753C88.2026 43.7477 88.2571 43.7202 88.3388 43.6926C88.6656 43.5273 89.0197 43.3619 89.3466 43.1965C89.6734 43.0312 90.0002 42.8934 90.3271 42.728C90.545 42.6178 90.7357 42.5351 90.9536 42.4249C91.008 42.3973 91.0897 42.3698 91.1442 42.3422C91.2804 42.2871 91.4166 42.2044 91.5528 42.1493C91.8252 42.0115 92.0975 41.9013 92.3699 41.791C92.3699 41.791 92.3971 41.791 92.3971 41.7635C92.6423 41.6532 92.9147 41.543 93.1598 41.4328C93.5139 41.2674 93.8952 41.1296 94.2493 40.9642C94.5761 40.8264 94.9302 40.6887 95.2571 40.5509C95.2843 40.5509 95.3115 40.5233 95.3388 40.5233C95.366 40.4957 95.4205 40.4957 95.4477 40.4682C95.6384 40.3855 95.8291 40.3304 96.0197 40.2477C96.0197 40.2477 96.047 40.2477 96.0742 40.2201C96.1287 40.1926 96.2104 40.165 96.2648 40.1375C96.5917 39.9997 96.9458 39.8894 97.2726 39.7516C97.9536 39.5036 98.6345 39.2556 99.3154 39.0351C99.6695 38.9249 99.9964 38.7871 100.35 38.6768C100.705 38.5666 101.031 38.4563 101.385 38.3461C101.74 38.2359 102.094 38.1256 102.421 38.0154C102.638 37.9603 102.829 37.8776 103.047 37.8225C103.183 37.7674 103.319 37.7398 103.456 37.7122C103.81 37.602 104.164 37.5193 104.518 37.4091C104.681 37.354 104.872 37.3264 105.035 37.2713C105.226 37.2162 105.389 37.1886 105.58 37.1335C106.288 36.9406 106.996 36.7752 107.705 36.6099C108.413 36.4445 109.148 36.2792 109.856 36.1414C110.21 36.0587 110.592 36.0036 110.946 35.9209C111.3 35.8382 111.681 35.7831 112.035 35.7004C112.389 35.6453 112.771 35.5626 113.125 35.5075C113.479 35.4524 113.86 35.3697 114.214 35.3146C114.568 35.2595 114.95 35.2043 115.304 35.1492C115.494 35.1217 115.658 35.0941 115.849 35.0665C116.039 35.039 116.203 35.0114 116.393 34.9839C116.393 34.9839 116.393 34.9839 116.421 34.9839L119.389 39.8343Z" fill="#4C87BF"/>
<path d="M61.083 72.0549C60.8908 72.2725 60.7262 72.5173 60.534 72.7348C59.6009 73.9315 58.6677 75.1553 57.7895 76.4064C57.6522 76.5967 57.515 76.8143 57.3778 77.0047C57.2131 77.2494 57.0484 77.4942 56.8837 77.739C56.7191 77.9837 56.5544 78.2285 56.3897 78.4733C56.1153 78.9084 55.8134 79.3436 55.5389 79.7787C55.2645 80.1866 55.0174 80.6218 54.7704 81.0297C54.6332 81.2745 54.4685 81.5193 54.3313 81.7368C53.7549 82.6887 53.1786 83.6678 52.6571 84.674C52.5199 84.946 52.3552 85.218 52.218 85.4899C52.1082 85.7075 51.9984 85.9251 51.8886 86.1154C51.7514 86.3602 51.6416 86.605 51.5044 86.8497C51.3946 87.0673 51.2848 87.2577 51.2025 87.4753C51.0927 87.6928 51.0103 87.8832 50.9006 88.0736C50.3242 89.2702 49.7753 90.4669 49.2264 91.6907C49.1166 91.9083 49.0342 92.1258 48.9519 92.3706C48.2932 93.9208 47.6894 95.4982 47.113 97.0756C47.0033 97.3475 46.9209 97.6467 46.8111 97.9458C46.7013 98.2722 46.5916 98.5714 46.4818 98.8977C46.4269 99.0609 46.372 99.2241 46.3171 99.3873C46.1524 99.8768 46.0152 100.339 45.8505 100.829C45.6584 101.481 45.4663 102.134 45.2742 102.787C45.2193 103.032 45.1369 103.276 45.082 103.521C44.9997 103.82 44.9174 104.092 44.8625 104.391C44.7801 104.691 44.7252 104.963 44.6429 105.262C44.6429 105.289 44.6429 105.289 44.6429 105.316C44.588 105.588 44.5057 105.887 44.4508 106.159C44.3136 106.757 44.1763 107.329 44.0665 107.927C44.0116 108.226 43.9293 108.525 43.8744 108.824C43.8195 109.124 43.7646 109.423 43.7097 109.695C43.6823 109.912 43.6274 110.13 43.6 110.347C43.5451 110.674 43.4902 110.973 43.4353 111.299C43.4078 111.49 43.3804 111.653 43.353 111.843C43.2706 112.333 43.1883 112.849 43.1334 113.339C43.0785 113.665 43.0511 113.992 42.9962 114.318C42.9687 114.481 42.9413 114.644 42.9413 114.808C42.9138 115.025 42.8864 115.243 42.8589 115.46C42.804 115.895 42.7491 116.358 42.7217 116.793C42.6943 117.01 42.6668 117.201 42.6668 117.418C42.557 118.506 42.4747 119.621 42.4198 120.736C42.4198 120.981 42.3923 121.226 42.3923 121.471C42.3923 121.579 42.3649 121.688 42.3649 121.797C42.3649 122.015 42.3375 122.259 42.3375 122.477C42.3375 122.749 42.31 123.021 42.31 123.32C42.31 123.646 42.2826 124 42.2826 124.326C42.2826 124.707 42.2826 125.061 42.2826 125.441C42.2826 125.822 42.2826 126.176 42.2826 126.556C42.2826 126.883 42.2826 127.182 42.31 127.508C42.31 127.807 42.3375 128.107 42.3375 128.406C42.3375 128.732 42.3649 129.058 42.3649 129.385L37.2051 125.169C37.2051 124.517 37.2051 123.864 37.2325 123.238C37.2325 123.211 37.2325 123.184 37.2325 123.157C37.2325 122.83 37.26 122.477 37.26 122.151C37.2874 121.824 37.2874 121.471 37.3149 121.144C37.3149 120.981 37.3423 120.818 37.3423 120.655C37.3423 120.492 37.3698 120.328 37.3698 120.165V120.138C37.3698 120.111 37.3698 120.111 37.3698 120.084C37.3698 119.866 37.3972 119.649 37.3972 119.458C37.3972 119.404 37.3972 119.377 37.3972 119.322C37.3972 119.241 37.3972 119.159 37.4247 119.077C37.4247 119.05 37.4247 119.05 37.4247 119.023C37.4521 118.724 37.4521 118.452 37.4795 118.153C37.507 117.826 37.5344 117.5 37.5619 117.174C37.5893 116.847 37.6168 116.521 37.6442 116.195C37.6991 115.705 37.754 115.216 37.8089 114.726C37.8363 114.481 37.8638 114.236 37.8912 113.992C37.9187 113.747 37.9461 113.502 37.9736 113.257C38.1931 111.626 38.4676 110.021 38.7695 108.416C38.9067 107.791 39.0165 107.138 39.1537 106.513C39.3459 105.642 39.538 104.772 39.7576 103.902C39.8399 103.603 39.8948 103.331 39.9771 103.032C39.9771 103.004 40.0046 102.977 40.0046 102.95C40.0594 102.787 40.0869 102.651 40.1143 102.488C40.1692 102.27 40.2241 102.025 40.3065 101.808C40.3888 101.509 40.4711 101.182 40.5535 100.883C40.5809 100.774 40.6084 100.665 40.6633 100.529L40.773 100.176C40.773 100.149 40.773 100.149 40.773 100.122C40.8005 100.013 40.8279 99.9312 40.8554 99.8496C40.9377 99.5776 41.0201 99.3057 41.1024 99.0337C41.1847 98.7617 41.2671 98.4898 41.3494 98.2178C41.3769 98.1362 41.4043 98.0546 41.4317 97.973C41.5141 97.7011 41.5964 97.4563 41.6788 97.1843C41.7885 96.8852 41.8709 96.6132 41.9532 96.3141C41.9807 96.2597 41.9807 96.2325 42.0081 96.1781C42.0081 96.1781 42.0081 96.1781 42.0081 96.1509C42.0904 95.8789 42.2002 95.607 42.2826 95.3622C42.6942 94.1656 43.1608 92.9689 43.6274 91.7995C43.7372 91.5275 43.847 91.2556 43.9568 91.0108C43.9568 90.9836 43.9842 90.9292 44.0117 90.902C44.1214 90.63 44.2587 90.3309 44.3685 90.0589C44.4782 89.7598 44.6155 89.4606 44.7527 89.1886C44.8076 89.0798 44.8625 88.9439 44.9174 88.8351C44.9723 88.6991 45.0271 88.5903 45.082 88.4815C45.082 88.4543 45.1095 88.4271 45.1095 88.3999C45.1369 88.3455 45.1644 88.3183 45.1644 88.264C45.2193 88.128 45.2742 87.992 45.3291 87.8832C45.3839 87.7472 45.4388 87.6384 45.5212 87.5025C45.6035 87.3121 45.6858 87.1489 45.7682 86.9585C45.8505 86.7682 45.9329 86.605 46.0152 86.4146C46.1799 86.061 46.3445 85.7075 46.5367 85.3539C46.619 85.1636 46.7013 85.0004 46.8111 84.81C46.8935 84.6468 47.0032 84.4565 47.0856 84.2933C47.2777 83.9397 47.4424 83.5862 47.6345 83.2326C47.7717 82.9607 47.909 82.6887 48.0736 82.4167C48.0736 82.3895 48.1011 82.3895 48.1011 82.3623C48.1011 82.3352 48.1285 82.308 48.1285 82.308C48.1285 82.308 48.1285 82.308 48.1285 82.2808C48.1834 82.172 48.2658 82.036 48.3206 81.9272C48.3755 81.7912 48.4579 81.6824 48.5402 81.5465C48.65 81.3289 48.7598 81.1385 48.897 80.9209C48.897 80.8937 48.9245 80.8937 48.9245 80.8665C48.9245 80.8665 48.9245 80.8394 48.9519 80.8394C49.0068 80.7578 49.0617 80.6762 49.0891 80.5946C49.1989 80.4042 49.3087 80.2138 49.4185 80.0235C49.4459 79.9691 49.5008 79.8875 49.5283 79.8331C49.5557 79.8059 49.5832 79.7515 49.5832 79.7243C49.7753 79.4251 49.94 79.126 50.1321 78.7996C50.3791 78.3917 50.6261 77.9837 50.8731 77.603C50.9829 77.4126 51.1201 77.2222 51.2299 77.0319C51.2299 77.0319 51.2299 77.0319 51.2299 77.0047C51.3671 76.7871 51.5044 76.5967 51.6416 76.3792C51.669 76.352 51.6965 76.3248 51.6965 76.2704C51.8337 76.08 51.9435 75.8896 52.0807 75.6992C52.2454 75.4545 52.4101 75.2097 52.5747 74.965C52.7669 74.693 52.959 74.421 53.1511 74.1491C53.3707 73.8499 53.5628 73.5507 53.7824 73.2516C53.7824 73.2244 53.8098 73.2244 53.8098 73.1972C53.9745 72.9524 54.1666 72.7076 54.3587 72.4357C54.3862 72.4085 54.4136 72.3541 54.4411 72.3269C54.5783 72.1365 54.743 71.919 54.8802 71.7286C55.3468 71.1031 55.8134 70.5047 56.2799 69.8792C56.6916 69.3353 57.1308 68.8186 57.5425 68.3018L61.083 72.0549Z" fill="#375A90"/>
<path d="M218.788 125.479C218.788 142.871 213.925 159.118 205.502 172.939L205.067 172.64L203.165 175.475L200.584 171.331C200.611 171.304 200.611 171.277 200.638 171.249C200.747 171.086 200.856 170.922 200.937 170.759C201.263 170.241 201.589 169.695 201.888 169.177C202.051 168.905 202.214 168.632 202.377 168.36C202.676 167.842 202.975 167.297 203.274 166.779C203.355 166.615 203.464 166.451 203.546 166.261C203.79 165.824 204.007 165.388 204.225 164.952C204.334 164.761 204.415 164.598 204.497 164.407C204.551 164.325 204.578 164.216 204.632 164.134C204.714 163.971 204.795 163.807 204.877 163.644C204.931 163.562 204.958 163.453 205.013 163.371C205.094 163.18 205.203 162.989 205.284 162.826C205.583 162.199 205.882 161.572 206.154 160.945C206.29 160.645 206.426 160.318 206.561 159.991V159.963C206.67 159.745 206.752 159.5 206.86 159.282C207.023 158.873 207.214 158.464 207.377 158.055C207.485 157.81 207.594 157.537 207.675 157.292C207.73 157.156 207.784 157.019 207.838 156.883C208.083 156.283 208.3 155.656 208.545 155.029C208.898 154.075 209.224 153.094 209.55 152.112C209.659 151.813 209.74 151.513 209.822 151.24C209.849 151.158 209.876 151.104 209.876 151.022C209.985 150.722 210.066 150.395 210.148 150.095C210.257 149.768 210.338 149.414 210.447 149.086C210.637 148.432 210.827 147.751 210.99 147.096C211.017 147.042 211.017 146.96 211.045 146.906C211.126 146.606 211.208 146.306 211.262 146.006C211.425 145.325 211.588 144.643 211.724 143.961V143.934C211.805 143.58 211.887 143.225 211.941 142.871C211.995 142.598 212.05 142.326 212.104 142.053C212.186 141.617 212.267 141.181 212.349 140.717C212.403 140.363 212.457 140.036 212.539 139.682C212.593 139.354 212.648 139.027 212.702 138.673C212.729 138.428 212.783 138.182 212.811 137.937C212.838 137.773 212.865 137.637 212.865 137.473C212.892 137.201 212.946 136.956 212.974 136.683C213.028 136.247 213.082 135.838 213.137 135.402C213.191 135.047 213.218 134.693 213.245 134.339V134.311C213.272 133.957 213.327 133.602 213.354 133.221C213.381 132.866 213.408 132.512 213.436 132.158C213.436 132.13 213.436 132.13 213.436 132.103C213.463 131.749 213.49 131.394 213.517 131.04V131.013C213.544 130.658 213.571 130.304 213.571 129.95C213.571 129.65 213.599 129.377 213.599 129.077C213.599 128.941 213.599 128.805 213.626 128.668C213.626 128.396 213.653 128.15 213.653 127.878C213.653 127.741 213.653 127.605 213.653 127.442C213.653 127.169 213.653 126.896 213.68 126.624C213.68 126.242 213.68 125.888 213.68 125.506C213.68 78.0182 175.316 39.499 127.958 39.499C127.496 39.499 127.062 39.499 126.6 39.499C126.301 39.499 125.975 39.499 125.676 39.5263C124.48 39.5536 123.285 39.6081 122.089 39.6899C121.791 39.7171 121.492 39.7444 121.193 39.7444C120.84 39.7716 120.486 39.7989 120.133 39.8262C120.052 39.8262 119.97 39.8262 119.916 39.8534C119.617 39.8807 119.291 39.908 118.992 39.9352L116.058 35.1919H116.085C116.356 35.1646 116.628 35.1374 116.9 35.0828C116.927 35.0828 116.981 35.0828 117.009 35.0556C117.036 35.0556 117.09 35.0556 117.117 35.0556C117.226 35.0556 117.362 35.0283 117.47 35.0283C117.498 35.0283 117.525 35.0283 117.552 35.0283C117.715 35.0011 117.878 35.0011 118.041 34.9738C118.313 34.9465 118.584 34.9193 118.856 34.892C119.59 34.8102 120.323 34.7557 121.057 34.7012C123.339 34.5376 125.649 34.4286 127.958 34.4286C150.564 34.4286 171.24 42.7158 187.108 56.4278C206.534 73.1386 218.788 97.8639 218.788 125.479Z" fill="#5392BE"/>
<path d="M203.24 175.169L197.292 184.041L197.346 184.068C192.291 190.083 186.452 195.39 180.018 199.908L176.585 196.179C176.883 195.962 177.18 195.771 177.477 195.553C177.721 195.39 177.937 195.227 178.153 195.064C178.288 194.955 178.423 194.873 178.559 194.764C178.802 194.574 179.072 194.41 179.316 194.22C179.505 194.084 179.694 193.948 179.856 193.812C181.938 192.233 183.938 190.573 185.858 188.804C186.101 188.586 186.344 188.368 186.587 188.151C186.858 187.906 187.101 187.661 187.371 187.416C187.588 187.225 187.777 187.008 187.993 186.817C188.318 186.518 188.615 186.218 188.912 185.892C189.101 185.701 189.264 185.538 189.453 185.348C189.534 185.266 189.615 185.184 189.669 185.13C189.858 184.939 190.048 184.749 190.21 184.558C190.264 184.504 190.291 184.477 190.318 184.449C190.534 184.232 190.75 183.987 190.967 183.769C191.183 183.524 191.399 183.306 191.616 183.062C191.805 182.844 191.994 182.626 192.183 182.408C192.345 182.218 192.535 182.027 192.697 181.837C192.832 181.701 192.94 181.565 193.048 181.429C193.265 181.184 193.481 180.939 193.67 180.694C194.562 179.632 195.4 178.571 196.238 177.482C196.4 177.265 196.563 177.047 196.725 176.829C196.968 176.503 197.211 176.149 197.455 175.822C197.617 175.604 197.752 175.387 197.914 175.196C198.266 174.706 198.617 174.189 198.968 173.699C199.158 173.427 199.32 173.182 199.509 172.91C199.725 172.611 199.915 172.311 200.104 171.985C200.293 171.713 200.455 171.413 200.644 171.114C200.672 171.087 200.672 171.059 200.699 171.032L203.24 175.169Z" fill="#4C87BF"/>
<path d="M179.917 199.79C169.936 206.835 158.472 211.86 146.117 214.346L141.046 210.113C141.451 210.058 141.855 209.976 142.233 209.921H142.26C142.584 209.867 142.88 209.812 143.204 209.758C143.339 209.73 143.447 209.703 143.555 209.703C143.932 209.648 144.337 209.566 144.715 209.484C145.092 209.403 145.47 209.321 145.848 209.239C146.198 209.157 146.549 209.102 146.927 209.02C147.062 208.993 147.169 208.966 147.277 208.938C147.601 208.856 147.925 208.802 148.221 208.72C148.626 208.638 149.004 208.529 149.408 208.419C149.759 208.337 150.137 208.228 150.487 208.119C151.297 207.901 152.133 207.655 152.915 207.409C153.293 207.3 153.67 207.19 154.048 207.054C154.318 206.972 154.588 206.89 154.857 206.781C155.127 206.699 155.424 206.59 155.694 206.508C155.747 206.48 155.801 206.48 155.828 206.453C156.098 206.371 156.341 206.262 156.611 206.18C156.88 206.071 157.177 205.989 157.447 205.88C157.798 205.743 158.121 205.634 158.472 205.497C159.281 205.197 160.063 204.869 160.846 204.541C161.169 204.405 161.466 204.268 161.79 204.132C162.248 203.941 162.707 203.722 163.166 203.531C163.381 203.422 163.624 203.34 163.84 203.231C164.649 202.848 165.485 202.466 166.268 202.056C166.969 201.701 167.643 201.346 168.318 200.991C168.668 200.8 169.019 200.609 169.37 200.418C169.721 200.226 170.071 200.035 170.395 199.844C170.719 199.653 171.015 199.489 171.339 199.298C171.393 199.271 171.42 199.243 171.474 199.216C171.798 199.025 172.121 198.834 172.445 198.615C172.769 198.397 173.119 198.206 173.443 197.987C173.767 197.769 174.117 197.55 174.441 197.332C175.089 196.895 175.763 196.458 176.41 196.021L179.917 199.79Z" fill="#375A90"/>
<path d="M146.044 214.272C140.292 215.414 134.323 216.012 128.245 216.012C105.267 216.012 84.3058 207.532 68.2785 193.536C49.2256 176.904 37.2051 152.472 37.2051 125.241C37.2051 125.133 37.2051 125.051 37.2051 124.942L42.3295 129.155C42.3295 129.508 42.3567 129.861 42.384 130.215C42.4112 130.568 42.4112 130.921 42.4385 131.275C42.4658 131.601 42.493 131.927 42.5203 132.253C42.5203 132.334 42.5203 132.416 42.5475 132.498C42.5748 132.742 42.5748 132.987 42.602 133.204C42.6293 133.367 42.6293 133.53 42.6566 133.666C42.6838 133.884 42.6838 134.074 42.7111 134.291C42.7111 134.427 42.7383 134.536 42.7656 134.672C42.7928 134.943 42.8201 135.242 42.8474 135.514C42.9019 135.867 42.9291 136.221 42.9836 136.547C43.0654 137.253 43.1744 137.933 43.2835 138.612C43.338 138.966 43.3925 139.292 43.447 139.645C43.5015 139.971 43.556 140.324 43.6378 140.651C43.6378 140.678 43.6378 140.678 43.6378 140.705C43.6923 141.031 43.7741 141.357 43.8286 141.683C43.9104 142.064 43.9649 142.417 44.0467 142.797C44.1012 143.096 44.183 143.395 44.2375 143.721C44.3193 144.048 44.3738 144.401 44.4555 144.727C44.5373 145.053 44.6191 145.406 44.7009 145.733C44.7826 146.059 44.8644 146.385 44.9462 146.738C45.1097 147.418 45.3005 148.097 45.4913 148.749C45.6276 149.238 45.7639 149.728 45.9274 150.217C46.0637 150.706 46.2273 151.195 46.3908 151.657C46.7179 152.635 47.045 153.614 47.3993 154.565C47.5084 154.891 47.6447 155.19 47.7537 155.516C47.8627 155.842 47.999 156.141 48.108 156.467C48.2443 156.793 48.3534 157.092 48.4896 157.419C48.6259 157.718 48.7349 158.044 48.8712 158.37C49.0075 158.669 49.1438 158.995 49.2801 159.294C49.4164 159.593 49.5254 159.864 49.6617 160.163C49.689 160.191 49.689 160.218 49.7162 160.272C49.798 160.462 49.907 160.68 49.9888 160.87C50.0706 161.033 50.1251 161.169 50.2069 161.332C50.3159 161.577 50.4522 161.821 50.5612 162.093C50.6975 162.392 50.861 162.691 50.9973 162.99C51.1336 163.262 51.2699 163.533 51.4062 163.778C51.4334 163.832 51.4607 163.914 51.5152 163.995C51.6515 164.24 51.7605 164.512 51.8968 164.756C52.0058 164.974 52.1149 165.164 52.2239 165.354C52.3329 165.572 52.442 165.789 52.5782 165.979C52.6328 166.061 52.6873 166.169 52.7145 166.251C52.8236 166.441 52.9326 166.631 53.0144 166.822C53.1506 167.093 53.3142 167.338 53.4505 167.583C53.5868 167.827 53.723 168.045 53.8593 168.289C53.8593 168.289 53.8593 168.316 53.8866 168.316C54.0229 168.561 54.1864 168.833 54.35 169.077C54.4045 169.159 54.4317 169.24 54.4863 169.295C54.6226 169.512 54.7588 169.73 54.8951 169.974C54.9224 170.001 54.9496 170.056 54.9769 170.083C55.1404 170.327 55.304 170.599 55.4675 170.844C55.4675 170.871 55.4948 170.871 55.4948 170.898C55.6583 171.17 55.8491 171.442 56.0127 171.714C56.1762 171.985 56.3398 172.23 56.5033 172.474C56.9122 173.1 57.3483 173.697 57.7571 174.322C57.9207 174.567 58.0842 174.784 58.2478 175.029C59.4198 176.66 60.6464 178.236 61.9275 179.785C62.1456 180.03 62.3636 180.301 62.5817 180.546C63.0178 181.062 63.4539 181.551 63.8901 182.068C64.1081 182.312 64.3262 182.557 64.5715 182.802C64.6533 182.91 64.7623 182.992 64.8441 183.101C65.0076 183.264 65.1439 183.427 65.3074 183.617C65.7435 184.079 66.1797 184.541 66.6158 185.003C66.7793 185.193 66.9701 185.356 67.1337 185.546C68.3875 186.797 69.6686 188.02 70.977 189.188C71.1405 189.351 71.3313 189.487 71.4949 189.65C71.9582 190.058 72.4489 190.465 72.9122 190.873C73.0758 191.009 73.2393 191.145 73.4029 191.281C73.6209 191.471 73.8117 191.634 74.0298 191.797C74.2206 191.96 74.4387 192.123 74.6295 192.286C74.8475 192.449 75.0656 192.64 75.2836 192.803C75.4744 192.938 75.638 193.074 75.8288 193.237C75.8833 193.292 75.9651 193.346 76.0196 193.373C76.2104 193.509 76.3739 193.645 76.5647 193.781C77.0826 194.161 77.6005 194.542 78.1457 194.922C78.3365 195.058 78.5 195.194 78.6908 195.303C79.0452 195.547 79.3995 195.792 79.7538 196.037C79.9719 196.2 80.2172 196.336 80.4353 196.499C80.7079 196.689 81.0077 196.879 81.2803 197.042C81.5528 197.232 81.8527 197.395 82.1252 197.586C82.3978 197.749 82.6431 197.912 82.9157 198.075C83.161 198.211 83.3791 198.374 83.6244 198.51C83.897 198.673 84.1423 198.836 84.4149 198.972C84.851 199.243 85.2871 199.488 85.7232 199.733C85.9685 199.869 86.2138 200.004 86.4864 200.168C87.0316 200.466 87.604 200.765 88.1764 201.064C88.3672 201.173 88.558 201.255 88.7488 201.363C88.8851 201.445 89.0214 201.499 89.1849 201.581C92.1832 203.103 95.2906 204.461 98.5069 205.657C98.7795 205.766 99.0521 205.847 99.3247 205.956C99.5155 206.038 99.7335 206.092 99.9243 206.174C100.17 206.255 100.415 206.364 100.688 206.445C101.015 206.554 101.369 206.663 101.696 206.771C101.969 206.853 102.241 206.935 102.487 207.016C102.786 207.098 103.086 207.206 103.359 207.288C103.631 207.369 103.904 207.451 104.176 207.532C104.449 207.614 104.694 207.695 104.967 207.75C105.185 207.804 105.43 207.886 105.648 207.94C105.73 207.967 105.785 207.994 105.866 207.994C106.112 208.049 106.357 208.13 106.602 208.185C106.793 208.239 106.957 208.266 107.148 208.321C107.257 208.348 107.393 208.375 107.502 208.402C107.693 208.456 107.883 208.511 108.102 208.538C108.347 208.592 108.592 208.647 108.837 208.701C108.837 208.701 108.865 208.701 108.892 208.701C109.192 208.783 109.492 208.837 109.819 208.918C109.901 208.946 109.955 208.946 110.037 208.973C110.337 209.027 110.664 209.109 110.964 209.163C111.236 209.217 111.509 209.272 111.809 209.326C111.945 209.353 112.108 209.38 112.245 209.408C112.49 209.462 112.708 209.489 112.953 209.543C113.008 209.543 113.09 209.571 113.144 209.571C113.417 209.625 113.689 209.652 113.962 209.707C114.207 209.761 114.425 209.788 114.671 209.815C114.97 209.87 115.27 209.924 115.597 209.951C115.952 210.005 116.279 210.06 116.633 210.087C116.987 210.141 117.315 210.169 117.669 210.223C117.696 210.223 117.696 210.223 117.723 210.223C118.023 210.25 118.35 210.304 118.65 210.332C118.977 210.359 119.304 210.413 119.631 210.44C119.904 210.467 120.177 210.495 120.476 210.522C120.531 210.522 120.613 210.522 120.667 210.549C120.94 210.576 121.212 210.603 121.458 210.603C121.703 210.631 121.976 210.631 122.221 210.658C122.466 210.685 122.711 210.685 122.957 210.712C123.665 210.766 124.374 210.794 125.11 210.821C125.464 210.821 125.819 210.848 126.173 210.848C126.282 210.848 126.391 210.848 126.528 210.848C127.127 210.848 127.727 210.875 128.354 210.875C128.735 210.875 129.09 210.875 129.471 210.875C129.798 210.875 130.125 210.875 130.453 210.848C130.834 210.848 131.189 210.821 131.57 210.821C131.788 210.821 131.979 210.794 132.197 210.794C132.279 210.794 132.361 210.794 132.47 210.794C132.715 210.794 132.933 210.766 133.178 210.766C134.568 210.685 135.959 210.576 137.321 210.44C137.621 210.413 137.921 210.386 138.248 210.332C138.521 210.304 138.793 210.277 139.039 210.223C139.175 210.196 139.338 210.196 139.475 210.169C139.993 210.114 140.511 210.033 141.028 209.951L146.044 214.272Z" fill="#20385A"/>
<path d="M38.871 108.283C38.6603 109.94 38.4689 111.596 38.3157 113.281C38.4689 111.596 38.6603 109.94 38.871 108.283Z" fill="#20385A"/>
<path d="M39.9816 103.841C39.7796 104.767 39.603 105.692 39.4263 106.618C39.603 105.692 39.7796 104.767 39.9816 103.841Z" fill="#20385A"/>
<path d="M116.058 35.1661C116.058 35.1661 116.058 35.1935 116.058 35.1661C115.867 35.1935 115.677 35.2208 115.487 35.2481C115.297 35.2754 115.134 35.3027 114.943 35.33C114.563 35.3847 114.21 35.4393 113.856 35.4939C113.476 35.5486 113.123 35.6032 112.769 35.6852C112.416 35.7398 112.036 35.8218 111.682 35.8764C111.329 35.931 110.949 36.013 110.595 36.0949C110.242 36.1769 109.861 36.2315 109.508 36.3135C108.802 36.45 108.068 36.614 107.361 36.7779C106.655 36.9418 105.948 37.1057 105.242 37.2969C105.078 37.3515 104.888 37.3788 104.698 37.4335C104.535 37.4881 104.345 37.5427 104.182 37.5701C103.828 37.652 103.475 37.7613 103.122 37.8705C102.986 37.8979 102.85 37.9525 102.714 37.9798C102.497 38.0344 102.306 38.0891 102.089 38.171C101.736 38.2803 101.383 38.3896 101.056 38.4988C100.703 38.6081 100.377 38.7174 100.024 38.8266C99.6704 38.9359 99.3443 39.0452 98.991 39.1818C98.3116 39.4003 97.6322 39.6462 96.9528 39.892C96.6267 40.0286 96.2734 40.1379 95.9473 40.2745C95.8929 40.3018 95.8114 40.3291 95.757 40.3564C95.7299 40.3564 95.7299 40.3564 95.7027 40.3837C95.5125 40.4384 95.3222 40.5203 95.132 40.6023C95.1048 40.6023 95.0505 40.6296 95.0233 40.6569C94.9961 40.6569 94.9689 40.6842 94.9418 40.6842C94.6156 40.8208 94.2624 40.9574 93.9362 41.094C93.5829 41.2306 93.2025 41.3945 92.8492 41.5584C92.5774 41.6676 92.3328 41.7769 92.0883 41.8862C92.0883 41.8862 92.0611 41.8862 92.0611 41.9135C91.7893 42.0227 91.5176 42.1593 91.2458 42.2686C91.1099 42.3232 90.974 42.3779 90.8382 42.4598C90.7838 42.4871 90.7023 42.5145 90.6479 42.5418C90.4305 42.6237 90.2403 42.733 90.0229 42.8423C89.6968 42.9788 89.3706 43.1428 89.0445 43.3067C88.7184 43.4706 88.3651 43.6345 88.039 43.7984C87.9847 43.8257 87.9031 43.853 87.8488 43.8803C87.7944 43.9076 87.7401 43.9349 87.6586 43.9623C87.4683 44.0442 87.2781 44.1535 87.115 44.2354C86.7889 44.3993 86.49 44.5632 86.191 44.7271C85.7834 44.9457 85.3486 45.1642 84.9409 45.3828C84.9138 45.3828 84.8866 45.4101 84.8594 45.4374C84.8322 45.4647 84.805 45.4647 84.7779 45.492C84.6148 45.574 84.4789 45.6559 84.3159 45.7379C84.0713 45.8745 83.8267 46.0111 83.5821 46.1476C83.3104 46.3115 83.0386 46.4481 82.7668 46.612C82.7668 46.612 82.7397 46.612 82.7125 46.6393C82.4407 46.8032 82.169 46.9398 81.9244 47.1037C81.87 47.1311 81.8428 47.1584 81.7885 47.1857C81.5167 47.3496 81.2178 47.5135 80.946 47.7047C80.6471 47.8959 80.3482 48.0598 80.0492 48.2511C79.8046 48.3877 79.56 48.5515 79.3426 48.7155C79.3155 48.7155 79.3155 48.7428 79.2883 48.7428C79.2068 48.7974 79.1524 48.8247 79.0709 48.8794C78.8806 48.9886 78.7176 49.0979 78.5545 49.2345C78.5274 49.2618 78.473 49.2891 78.4458 49.3164C78.3643 49.3711 78.3099 49.3984 78.2284 49.453C78.011 49.5896 77.8208 49.7262 77.6305 49.8628C77.386 50.0267 77.1414 50.1906 76.8696 50.3818C76.6794 50.4911 76.5163 50.6277 76.3533 50.7369C76.1902 50.8462 76.0271 50.9555 75.8641 51.092C75.8641 51.092 75.8369 51.092 75.8369 51.1194C75.7826 51.1467 75.7554 51.174 75.701 51.2013C75.6739 51.2286 75.6467 51.2559 75.5923 51.2833C75.3477 51.4472 75.1303 51.6111 74.8858 51.775C74.6412 51.9389 74.3966 52.1301 74.152 52.3213C73.7987 52.5945 73.4182 52.8677 73.065 53.1408C72.8475 53.3047 72.6301 53.4686 72.4399 53.6325C72.3855 53.6599 72.3584 53.7145 72.304 53.7418C72.2497 53.7691 72.2225 53.8238 72.1681 53.8511C71.9779 54.015 71.7877 54.1516 71.5703 54.3155C71.2985 54.534 71.0267 54.7525 70.755 54.9711C70.4832 55.1896 70.2115 55.4082 69.9397 55.6267C69.6679 55.8452 69.3962 56.0638 69.1516 56.3096C68.8798 56.5282 68.6352 56.774 68.3635 56.9926C68.0917 57.2111 67.8471 57.4569 67.5754 57.6755C67.2221 58.0033 66.8688 58.3311 66.5155 58.6589C66.3524 58.7955 66.2166 58.9594 66.0535 59.096C65.8089 59.3418 65.5372 59.5604 65.2926 59.8062C65.2926 59.8062 65.2926 59.8062 65.2654 59.8335C65.0208 60.0794 64.7762 60.2979 64.5316 60.5438C64.287 60.7896 64.0425 61.0355 63.7979 61.2813C63.5805 61.4999 63.3631 61.7184 63.1457 61.937C62.9282 62.1555 62.7108 62.374 62.5206 62.5926C62.3847 62.7292 62.276 62.8657 62.1401 62.975L62.113 63.0023C61.9771 63.1662 61.814 63.3028 61.6781 63.4667L61.5694 63.576C61.4064 63.7399 61.2433 63.9311 61.1074 64.095C60.9716 64.2589 60.8085 64.4228 60.6726 64.5867C60.4552 64.8053 60.265 65.0511 60.0747 65.2696C59.6671 65.734 59.2866 66.1984 58.879 66.6628C58.4442 67.1819 58.0094 67.7009 57.6017 68.2199C57.5745 68.2472 57.5474 68.2745 57.5202 68.3019L49.4217 59.5604C49.6663 59.4238 49.9109 59.2599 50.1826 59.1233C50.3457 59.014 50.5359 58.9047 50.7261 58.7955C50.8348 58.7408 50.9164 58.6862 51.0251 58.6316C51.2697 58.495 51.5143 58.3311 51.786 58.1945C51.8404 58.1672 51.9219 58.1126 51.9763 58.0852C52.1393 58.0033 52.3024 57.894 52.4654 57.8121C52.6285 57.7028 52.7915 57.6208 52.9546 57.5116C53.2807 57.3204 53.634 57.1291 53.9601 56.9106C54.3406 56.6921 54.7482 56.4462 55.1559 56.2003C55.3733 56.0638 55.6178 55.9272 55.8353 55.8179C56.0798 55.6813 56.3516 55.5174 56.5962 55.3808C56.9767 55.1623 57.33 54.9711 57.7104 54.7525C58.2811 54.4247 58.8518 54.1243 59.4225 53.7964C59.803 53.5779 60.2106 53.3594 60.6183 53.1408C60.8085 53.0316 61.0259 52.9223 61.2162 52.813C61.5966 52.5945 61.9771 52.4033 62.3575 52.1847C62.4391 52.1301 62.5206 52.1028 62.6021 52.0481C63.1728 51.7477 63.7164 51.4472 64.2871 51.1467C65.1295 50.7096 65.972 50.2452 66.8416 49.7808C67.059 49.6715 67.2764 49.5623 67.4938 49.453C67.9287 49.2345 68.3635 48.9886 68.7983 48.7701C69.2331 48.5516 69.6951 48.3057 70.1299 48.0872C70.3202 48.0052 70.4832 47.8959 70.6735 47.814C71.1354 47.5681 71.6246 47.3496 72.0866 47.1037C72.3312 46.9672 72.5758 46.8579 72.8204 46.7486C73.2824 46.5301 73.7443 46.3115 74.1792 46.093C74.2607 46.0384 74.3422 46.0111 74.4509 45.9564C74.7227 45.8198 74.9945 45.6832 75.2662 45.574C75.538 45.4647 75.8097 45.3008 76.0815 45.1915C76.4076 45.0276 76.7609 44.8637 77.1142 44.7271C77.4403 44.5632 77.7936 44.3993 78.1469 44.2628C78.5002 44.0989 78.8263 43.9623 79.1796 43.7984C79.5057 43.6618 79.8318 43.4979 80.1579 43.3613C80.5112 43.1974 80.8917 43.0335 81.245 42.8696C81.5983 42.733 81.9244 42.5691 82.2777 42.4325C82.8484 42.1867 83.4463 41.9408 84.0441 41.6949C84.5061 41.5037 84.9409 41.3125 85.4029 41.1486C85.6475 41.0393 85.9193 40.9301 86.1639 40.8481C86.5987 40.6842 87.0335 40.493 87.4683 40.3291C87.6042 40.2745 87.7129 40.2471 87.8488 40.1925C87.9847 40.1379 88.0934 40.0832 88.2292 40.0559C88.3923 40.0013 88.5282 39.9466 88.6912 39.892C88.9902 39.7827 89.2619 39.6735 89.5609 39.5642C89.6152 39.5369 89.6696 39.5369 89.7239 39.5096C90.05 39.4003 90.349 39.291 90.6751 39.1544C91.0012 39.0452 91.3002 38.9359 91.6263 38.8266C92.3057 38.5808 92.9851 38.3623 93.6645 38.1164C94.0178 38.0071 94.3439 37.8979 94.6972 37.7886C95.0233 37.6793 95.3766 37.5701 95.7027 37.4608C95.9744 37.3788 96.219 37.2969 96.4908 37.2149C96.4908 37.2149 96.4908 37.2149 96.518 37.2149H96.5452C96.5995 37.1876 96.681 37.1876 96.7354 37.1603C96.9528 37.1057 97.1974 37.0237 97.4148 36.9691C97.5235 36.9418 97.6322 36.9144 97.7409 36.8871C98.067 36.7779 98.4203 36.6959 98.7464 36.614C99.0725 36.532 99.3987 36.4227 99.7519 36.3408C99.9965 36.2861 100.268 36.2042 100.513 36.1496C100.622 36.1222 100.73 36.0949 100.839 36.0676C101.056 36.013 101.274 35.9583 101.518 35.9037C101.763 35.8491 101.953 35.7944 102.198 35.7398C102.415 35.6852 102.633 35.6579 102.85 35.6032C102.904 35.6032 102.959 35.5759 103.013 35.5759C103.176 35.5486 103.366 35.4939 103.529 35.4666C103.692 35.4393 103.828 35.412 103.991 35.3847C104.209 35.33 104.426 35.3027 104.644 35.2481C104.915 35.1935 105.214 35.1388 105.486 35.0842C105.513 35.0842 105.568 35.0842 105.595 35.0569C105.622 35.0569 105.649 35.0569 105.676 35.0569C105.704 35.0569 105.731 35.0569 105.758 35.0569C105.975 35.0296 106.193 34.9749 106.41 34.9476C106.709 34.893 106.981 34.8657 107.28 34.811C107.388 34.7837 107.497 34.7837 107.579 34.7837C107.606 34.7837 107.633 34.7837 107.66 34.7837C107.823 34.7564 107.986 34.7564 108.122 34.7291C108.285 34.7018 108.421 34.7018 108.584 34.6744C108.802 34.6471 109.019 34.6198 109.264 34.6198C110.677 34.4832 112.117 34.4286 113.639 34.4286C113.884 34.4286 114.128 34.4286 114.373 34.4286C114.454 34.4286 114.563 34.4286 114.644 34.4286C114.835 34.4286 115.025 34.4286 115.215 34.4559C115.378 34.4559 115.514 34.4559 115.677 34.4559L116.058 35.1661Z" fill="#4C87BF"/>
<path d="M107.728 36.6498C106.988 36.8251 106.247 37.0005 105.507 37.2051C106.247 37.0005 106.988 36.8251 107.728 36.6498Z" fill="#20385A"/>
<path d="M121.055 34.9512C120.324 35.0165 119.593 35.0819 118.861 35.1799C118.59 35.2125 118.319 35.2452 118.049 35.2779C117.886 35.3105 117.724 35.3105 117.561 35.3432C117.534 35.3432 117.507 35.3432 117.48 35.3432C117.371 35.3432 117.236 35.3759 117.128 35.3759C117.1 35.3759 117.046 35.3759 117.019 35.3759C116.992 35.3759 116.938 35.3759 116.911 35.4085C116.64 35.4412 116.369 35.5065 116.098 35.5392H116.071L115.502 34.4286L121.055 34.9512Z" fill="#4C87BF"/>
<path d="M137.159 207.193C137.132 207.193 137.104 207.193 137.077 207.193C136.749 207.22 136.394 207.274 136.066 207.302C135.793 207.329 135.52 207.356 135.274 207.383C135.11 207.41 134.946 207.41 134.81 207.438C134.619 207.465 134.4 207.465 134.209 207.492C134.072 207.492 133.908 207.519 133.772 207.519C133.444 207.546 133.116 207.573 132.761 207.573C132.379 207.601 132.024 207.601 131.641 207.628C131.368 207.628 131.068 207.655 130.795 207.655C130.658 207.655 130.549 207.655 130.412 207.655C129.702 207.682 128.992 207.682 128.282 207.682C126.561 207.682 124.867 207.628 123.174 207.519C122.982 207.519 122.791 207.492 122.6 207.492C122.436 207.492 122.272 207.465 122.108 207.465C121.917 207.465 121.699 207.438 121.507 207.41C121.261 207.383 120.988 207.356 120.743 207.356C120.497 207.329 120.224 207.302 119.978 207.274C119.896 207.274 119.814 207.274 119.732 207.247C119.486 207.22 119.213 207.193 118.967 207.166C118.885 207.166 118.83 207.139 118.748 207.139C118.475 207.111 118.202 207.084 117.929 207.03C117.683 207.003 117.41 206.976 117.164 206.921C116.973 206.894 116.782 206.867 116.591 206.84C116.399 206.813 116.208 206.785 116.017 206.758C115.252 206.65 114.46 206.514 113.695 206.378C113.422 206.323 113.149 206.269 112.876 206.242C112.466 206.16 112.056 206.079 111.674 205.997C111.346 205.943 110.991 205.862 110.663 205.78C108.068 205.209 105.501 204.53 102.988 203.742C102.851 203.688 102.687 203.661 102.551 203.606C102.305 203.525 102.059 203.443 101.813 203.362C101.594 203.28 101.376 203.226 101.157 203.144C100.884 203.063 100.638 202.954 100.365 202.873C100.065 202.764 99.7644 202.655 99.4912 202.547C99.4912 202.547 99.4639 202.547 99.4639 202.52C99.1907 202.411 98.9176 202.302 98.6444 202.221C98.5898 202.193 98.5352 202.166 98.4805 202.166C98.2347 202.058 97.9889 201.976 97.743 201.867C97.7157 201.867 97.6884 201.84 97.6611 201.84C97.3879 201.732 97.1421 201.623 96.8963 201.541C96.8416 201.514 96.787 201.487 96.7324 201.487C96.4865 201.378 96.2134 201.27 95.9675 201.161C95.4212 200.916 94.8749 200.699 94.3559 200.454C94.0555 200.319 93.755 200.183 93.4545 200.047C91.7064 199.232 89.9855 198.362 88.3193 197.438C88.1007 197.33 87.9095 197.221 87.691 197.085C87.0628 196.732 86.4618 196.379 85.8609 196.026C85.6424 195.89 85.4512 195.781 85.2326 195.645C84.8775 195.428 84.5498 195.21 84.1947 195.02C83.9488 194.857 83.703 194.721 83.4845 194.558C83.2113 194.395 82.9382 194.205 82.6923 194.042C82.4192 193.879 82.1733 193.689 81.9002 193.526C81.627 193.336 81.3539 193.173 81.0807 192.982C80.589 192.629 80.07 192.276 79.5784 191.923C79.0867 191.542 78.5677 191.189 78.076 190.809C77.5844 190.428 77.0927 190.048 76.601 189.668C76.3279 189.45 76.082 189.26 75.8362 189.043C75.126 188.472 74.4431 187.874 73.7329 187.276C73.4871 187.059 73.2685 186.869 73.0227 186.652C72.8042 186.434 72.5583 186.244 72.3398 186.027C72.1213 185.809 71.8755 185.592 71.6569 185.402C71.1926 184.967 70.7555 184.532 70.3185 184.097C70.1 183.88 69.8814 183.663 69.6629 183.445C69.4444 183.228 69.2259 183.011 69.0074 182.793C68.7888 182.576 68.5703 182.331 68.3518 182.114C68.1333 181.897 67.9148 181.652 67.7235 181.435C67.3138 180.973 66.8768 180.511 66.467 180.049C66.2485 179.804 66.0573 179.587 65.8388 179.342C65.2379 178.636 64.6096 177.93 64.036 177.196C63.8448 176.951 63.6536 176.707 63.4624 176.462C63.3258 176.272 63.1619 176.082 63.0253 175.919C62.9434 175.81 62.8614 175.729 62.8068 175.62C62.7249 175.538 62.6702 175.43 62.5883 175.348C62.5336 175.294 62.5063 175.24 62.4517 175.185C62.4517 175.185 62.4517 175.185 62.4517 175.158C62.4244 175.131 62.3971 175.104 62.3971 175.077C62.3698 175.049 62.3698 175.049 62.3424 175.022C62.3151 174.995 62.2878 174.941 62.2605 174.914C62.2332 174.886 62.2058 174.859 62.1785 174.832L61.7688 174.261C61.3864 173.745 61.0313 173.256 60.6762 172.74C60.485 172.468 60.3211 172.224 60.1299 171.952C59.966 171.707 59.7748 171.436 59.6109 171.191C59.447 170.974 59.3104 170.756 59.1739 170.512C59.1465 170.457 59.0919 170.403 59.0646 170.322C58.9007 170.077 58.7641 169.833 58.6002 169.588C58.4363 169.316 58.2725 169.072 58.1086 168.8L58.0812 168.773C57.9173 168.501 57.7535 168.257 57.6169 167.985C57.453 167.713 57.2891 167.441 57.1252 167.17C56.9613 166.898 56.7974 166.626 56.6609 166.355C56.4697 166.029 56.2784 165.702 56.0872 165.349C55.978 165.132 55.8414 164.915 55.7321 164.697C55.5956 164.425 55.4317 164.154 55.2951 163.855C54.8581 163.013 54.421 162.17 54.0113 161.328C53.7381 160.757 53.465 160.187 53.2191 159.616C53.0825 159.317 52.946 159.046 52.8367 158.747C52.7001 158.448 52.5909 158.176 52.4543 157.877C52.3177 157.578 52.2085 157.307 52.0719 157.008C51.9626 156.736 51.8534 156.437 51.7441 156.165C51.7441 156.138 51.7168 156.111 51.7168 156.111C51.6075 155.866 51.5256 155.595 51.4163 155.35C51.389 155.296 51.389 155.269 51.3617 155.214C51.2524 154.943 51.1432 154.644 51.0339 154.372C50.9246 154.073 50.8154 153.774 50.7061 153.475C50.5969 153.204 50.5149 152.905 50.4057 152.633C50.2691 152.226 50.1325 151.845 49.9959 151.438C49.914 151.22 49.8594 151.003 49.7774 150.758C49.6681 150.432 49.5862 150.133 49.4769 149.807C49.2857 149.21 49.1218 148.612 48.9306 147.987C48.8487 147.688 48.7667 147.362 48.6848 147.063C48.5209 146.438 48.357 145.813 48.1931 145.188C48.0292 144.563 47.8926 143.938 47.7561 143.313C47.7014 143.014 47.6195 142.743 47.5649 142.444C47.4829 142.118 47.4283 141.765 47.3463 141.411C47.2917 141.085 47.2371 140.786 47.1551 140.46C47.1005 140.216 47.0732 139.944 47.0186 139.672C46.9912 139.591 46.9913 139.509 46.9639 139.428C46.9366 139.211 46.882 138.993 46.8547 138.776C46.8274 138.667 46.8273 138.558 46.8 138.477C46.7454 138.178 46.7181 137.879 46.6635 137.607C46.6088 137.309 46.5815 137.01 46.5269 136.684C46.5269 136.656 46.5269 136.602 46.4996 136.575C46.4723 136.276 46.4176 135.95 46.3903 135.651C46.3084 134.999 46.2537 134.347 46.1718 133.695C46.1445 133.369 46.1172 133.043 46.0898 132.717L137.159 207.193Z" fill="#20385A"/>
<path d="M224.341 204.35L197.687 184.022C200.705 180.463 203.427 176.688 205.88 172.698L220.298 183.321L224.341 204.35Z" fill="#20385A"/>
<path d="M245.998 221.009L224.562 204.576L220.454 183.249L241.101 198.561L245.998 221.009Z" fill="#375A90"/>
<path d="M258.77 230.449C258.579 230.449 258.389 230.449 258.171 230.449L245.898 221.111L241 198.797L255.885 209.737L258.77 230.449Z" fill="#4C87BF"/>
<path d="M258.756 230.449L255.993 209.348L267.045 217.988C267.045 217.988 268.296 229.979 258.756 230.449Z" fill="#5392BE"/>
<path d="M104.098 118.279L97.9749 111.588V106.597C97.9749 106.597 96.896 100.015 90.6921 98.6443C90.6921 98.6443 88.9658 98.5072 86.9158 99.4944L81.629 93.7083C84.5961 91.158 97.4354 81.5053 107.173 96.478C107.146 96.4505 101.724 107.639 104.098 118.279Z" fill="white"/>
<path d="M86.6267 99.684C84.3673 100.733 81.7045 103.072 80.4403 108.262C80.4403 118.212 80.4403 133.272 80.4403 133.272H69.4124V90.5138H78.1002L80.7093 93.3375V94.5476C80.7093 94.5476 80.9245 94.3325 81.3279 93.9829L86.6267 99.684Z" fill="white"/>
<path d="M108.283 126.571C108.283 129.52 108.283 133.272 108.283 133.272H97.7327V111.615L104.035 118.155C104.702 121.103 106.034 123.971 108.283 126.571Z" fill="white"/>
<path d="M152.707 123.822L147.019 133.299H152.707V134.383H141.601V129.508C141.601 129.508 141.601 94.9007 141.601 94.8465V90.5138H149.728V99.45H152.707V123.822Z" fill="white"/>
<path d="M128.102 89.9585C115.925 89.9585 106.062 99.7944 106.062 111.906C106.062 117 107.798 121.661 110.718 125.4L113.501 128.327C117.385 131.768 122.509 133.827 128.102 133.827C133.199 133.827 137.882 132.12 141.601 129.221C141.601 129.221 141.601 94.592 141.601 94.5378C137.882 91.6656 133.199 89.9585 128.102 89.9585ZM128.24 124.913C121.628 124.913 116.256 119.087 116.256 111.906C116.256 104.726 121.628 98.9003 128.24 98.9003C134.852 98.9003 140.224 104.726 140.224 111.906C140.224 119.087 134.852 124.913 128.24 124.913Z" fill="white"/>
<path d="M128.274 124.942C134.715 124.942 139.935 119.1 139.935 111.893C139.935 104.686 134.715 98.8433 128.274 98.8433C121.834 98.8433 116.613 104.686 116.613 111.893C116.613 119.1 121.834 124.942 128.274 124.942Z" fill="#4C87BF"/>
<path d="M187.136 89.9585L169.556 121.055L163.624 111.562L171.154 98.8587H157.339V90.4979H153.818V89.9585H187.136Z" fill="white"/>
<path d="M177.141 132.717H157.15V122.554L163.75 111.615L169.722 121.029L168.059 123.891H171.522L177.141 132.717Z" fill="white"/>
<path d="M186.581 123.832V132.717H177.173L171.588 123.832H186.581Z" fill="white"/>
<path d="M114.726 150.723C114.413 151.172 113.975 151.508 113.412 151.732C112.854 151.952 112.202 152.062 111.457 152.062C110.704 152.062 110.035 151.887 109.452 151.536C108.868 151.18 108.415 150.677 108.093 150.025C107.776 149.373 107.613 148.618 107.604 147.759V146.953C107.604 145.56 107.928 144.481 108.576 143.715C109.227 142.949 110.141 142.566 111.318 142.566C112.283 142.566 113.059 142.814 113.647 143.309C114.236 143.8 114.595 144.498 114.726 145.404H113.508C113.279 144.181 112.551 143.569 111.324 143.569C110.507 143.569 109.887 143.857 109.464 144.433C109.045 145.004 108.834 145.833 108.829 146.921V147.676C108.829 148.713 109.066 149.538 109.54 150.152C110.014 150.761 110.655 151.066 111.464 151.066C111.921 151.066 112.321 151.015 112.663 150.914C113.006 150.812 113.29 150.641 113.514 150.399V148.324H111.375V147.333H114.726V150.723ZM120.154 148.197H117.983V151.936H116.758V142.693H119.817C120.858 142.693 121.658 142.93 122.217 143.404C122.779 143.878 123.061 144.568 123.061 145.474C123.061 146.049 122.904 146.551 122.591 146.978C122.282 147.405 121.851 147.725 121.296 147.936L123.467 151.859V151.936H122.16L120.154 148.197ZM117.983 147.2H119.855C120.46 147.2 120.941 147.044 121.296 146.73C121.656 146.417 121.836 145.998 121.836 145.474C121.836 144.902 121.664 144.464 121.322 144.16C120.983 143.855 120.492 143.7 119.849 143.696H117.983V147.2ZM131.884 147.613C131.884 148.518 131.732 149.31 131.427 149.987C131.122 150.66 130.691 151.174 130.132 151.529C129.574 151.885 128.922 152.062 128.177 152.062C127.449 152.062 126.804 151.885 126.241 151.529C125.678 151.17 125.24 150.66 124.927 149.999C124.618 149.335 124.459 148.567 124.451 147.695V147.029C124.451 146.14 124.605 145.355 124.914 144.674C125.223 143.992 125.659 143.472 126.222 143.112C126.789 142.748 127.437 142.566 128.164 142.566C128.905 142.566 129.557 142.746 130.119 143.106C130.687 143.461 131.122 143.98 131.427 144.661C131.732 145.338 131.884 146.127 131.884 147.029V147.613ZM130.672 147.016C130.672 145.92 130.452 145.08 130.012 144.496C129.571 143.908 128.956 143.614 128.164 143.614C127.394 143.614 126.787 143.908 126.343 144.496C125.903 145.08 125.676 145.893 125.663 146.934V147.613C125.663 148.675 125.886 149.511 126.33 150.12C126.778 150.725 127.394 151.028 128.177 151.028C128.964 151.028 129.574 150.742 130.005 150.171C130.437 149.595 130.659 148.772 130.672 147.702V147.016ZM140.219 142.693V148.977C140.214 149.849 139.939 150.562 139.393 151.117C138.852 151.671 138.115 151.982 137.184 152.05L136.861 152.062C135.849 152.062 135.043 151.79 134.442 151.244C133.841 150.698 133.537 149.947 133.528 148.99V142.693H134.734V148.952C134.734 149.621 134.918 150.141 135.286 150.514C135.655 150.882 136.179 151.066 136.861 151.066C137.55 151.066 138.077 150.882 138.441 150.514C138.809 150.145 138.994 149.627 138.994 148.958V142.693H140.219ZM143.361 148.317V151.936H142.142V142.693H145.551C146.562 142.693 147.353 142.951 147.925 143.468C148.5 143.984 148.788 144.667 148.788 145.518C148.788 146.415 148.507 147.107 147.944 147.594C147.385 148.076 146.583 148.317 145.538 148.317H143.361ZM143.361 147.321H145.551C146.202 147.321 146.702 147.168 147.049 146.864C147.396 146.555 147.569 146.11 147.569 145.531C147.569 144.981 147.396 144.54 147.049 144.21C146.702 143.88 146.226 143.709 145.62 143.696H143.361V147.321ZM83.0897 166.936H81.8709V157.693H83.0897V166.936ZM92.4271 166.936H91.202L86.5492 159.813V166.936H85.3241V157.693H86.5492L91.2147 164.847V157.693H92.4271V166.936ZM100.787 158.696H97.8163V166.936H96.6039V158.696H93.6395V157.693H100.787V158.696ZM107.382 162.664H103.377V165.939H108.03V166.936H102.158V157.693H107.966V158.696H103.377V161.667H107.382V162.664ZM112.936 163.197H110.765V166.936H109.54V157.693H112.6C113.641 157.693 114.441 157.93 114.999 158.404C115.562 158.878 115.844 159.568 115.844 160.474C115.844 161.049 115.687 161.551 115.374 161.978C115.065 162.405 114.633 162.725 114.079 162.936L116.25 166.859V166.936H114.942L112.936 163.197ZM110.765 162.2H112.638C113.243 162.2 113.723 162.044 114.079 161.73C114.439 161.417 114.619 160.998 114.619 160.474C114.619 159.902 114.447 159.464 114.104 159.16C113.766 158.855 113.275 158.7 112.632 158.696H110.765V162.2ZM124.66 166.936H123.435L118.783 159.813V166.936H117.557V157.693H118.783L123.448 164.847V157.693H124.66V166.936ZM132.043 164.523H128.171L127.301 166.936H126.044L129.574 157.693H130.64L134.176 166.936H132.925L132.043 164.523ZM128.539 163.52H131.681L130.107 159.198L128.539 163.52ZM140.98 158.696H138.01V166.936H136.797V158.696H133.833V157.693H140.98V158.696ZM143.659 166.936H142.44V157.693H143.659V166.936ZM153.003 162.613C153.003 163.518 152.85 164.31 152.546 164.987C152.241 165.66 151.809 166.174 151.251 166.529C150.692 166.885 150.041 167.062 149.296 167.062C148.568 167.062 147.923 166.885 147.36 166.529C146.797 166.17 146.359 165.66 146.046 164.999C145.737 164.335 145.578 163.567 145.57 162.695V162.029C145.57 161.14 145.724 160.355 146.033 159.674C146.342 158.992 146.778 158.472 147.341 158.112C147.908 157.748 148.555 157.566 149.283 157.566C150.024 157.566 150.675 157.746 151.238 158.106C151.805 158.461 152.241 158.98 152.546 159.661C152.85 160.338 153.003 161.127 153.003 162.029V162.613ZM151.79 162.016C151.79 160.92 151.57 160.08 151.13 159.496C150.69 158.908 150.074 158.614 149.283 158.614C148.513 158.614 147.906 158.908 147.461 159.496C147.021 160.08 146.795 160.893 146.782 161.934V162.613C146.782 163.675 147.004 164.511 147.449 165.12C147.897 165.725 148.513 166.028 149.296 166.028C150.083 166.028 150.692 165.742 151.124 165.171C151.556 164.595 151.778 163.772 151.79 162.702V162.016ZM161.934 166.936H160.709L156.056 159.813V166.936H154.831V157.693H156.056L160.722 164.847V157.693H161.934V166.936ZM169.316 164.523H165.444L164.575 166.936H163.318L166.847 157.693H167.913L171.449 166.936H170.199L169.316 164.523ZM165.812 163.52H168.954L167.38 159.198L165.812 163.52ZM173.918 165.939H178.298V166.936H172.693V157.693H173.918V165.939Z" fill="white"/>
<path d="M210.459 29.9974L187.379 56.6406C171.457 42.9236 150.772 34.6334 128.128 34.6334C125.787 34.6334 123.501 34.7152 121.215 34.9061L115.636 34.497L96.8289 4.22691L96.0668 2.99974L110.029 0L122.276 19.9074L138.062 20.1801L150.038 0.545407L167.728 5.45407L168.817 28.0885L182.425 34.9061H183.786L203.654 22.3617L210.459 29.9974Z" fill="#5392BE"/>
</svg>
